<?xml version="1.0" standalone="no"?>
<!DOCTYPE svg PUBLIC "-//W3C//DTD SVG 20010904//EN"
 "http://www.w3.org/TR/2001/REC-SVG-20010904/DTD/svg10.dtd">
<svg version="1.0" xmlns="http://www.w3.org/2000/svg"
 width="591.000000pt" height="591.000000pt" viewBox="0 0 591.000000 591.000000"
 preserveAspectRatio="xMidYMid meet">

<g transform="translate(0.000000,591.000000) scale(0.100000,-0.100000)"
fill="#000000" stroke="none">
<path d="M3095 4270 c-12 -4 -27 -15 -34 -24 -7 -9 -19 -16 -26 -16 -11 0 -89
-45 -418 -242 -20 -13 -59 -37 -85 -53 -26 -17 -69 -43 -95 -59 -27 -15 -46
-30 -44 -33 3 -3 37 15 77 39 39 23 83 49 98 57 15 8 52 30 82 50 30 19 64 40
75 47 11 6 36 20 55 31 19 11 51 29 70 39 19 11 41 25 49 33 8 8 29 20 46 28
16 7 50 27 75 43 25 17 57 35 73 41 15 6 27 15 27 20 0 5 -1 9 -2 8 -2 0 -12
-4 -23 -9z"/>
<path d="M2324 3811 c-18 -11 -35 -25 -40 -33 -4 -7 2 -5 13 5 11 9 24 17 29
17 14 0 52 29 39 30 -5 0 -24 -9 -41 -19z"/>
<path d="M755 3006 c-14 -14 -25 -32 -25 -40 0 -23 12 -48 19 -39 10 15 107
73 122 74 18 0 -16 14 -58 23 -27 6 -37 3 -58 -18z"/>
<path d="M1750 2845 c-14 -16 -49 -37 -92 -56 -16 -6 -28 -15 -28 -20 0 -5 -8
-9 -18 -9 -11 0 -27 -9 -37 -20 -10 -11 -24 -20 -30 -20 -7 0 -19 -7 -26 -16
-7 -9 -36 -30 -64 -48 -28 -17 -60 -37 -71 -44 -10 -7 -31 -17 -46 -23 -15 -6
-30 -19 -33 -30 -4 -10 -13 -19 -20 -19 -8 0 -21 -10 -29 -22 -14 -20 -21 -18
-17 5 1 5 -3 6 -9 2 -5 -3 -10 -12 -10 -20 0 -7 -7 -21 -16 -29 -12 -12 -12
-16 -2 -16 7 0 44 -5 83 -10 62 -9 71 -9 82 7 11 14 13 14 13 2 0 -23 44 -43
75 -35 19 5 25 4 19 -5 -9 -16 76 -5 111 13 13 7 66 54 117 103 52 50 118 112
146 138 35 33 52 57 52 74 0 13 -4 22 -9 18 -6 -3 -9 6 -8 21 4 47 -103 95
-133 59z m-400 -385 c0 -5 -4 -10 -10 -10 -5 0 -10 5 -10 10 0 6 5 10 10 10 6
0 10 -4 10 -10z m147 -16 c-3 -3 -12 -4 -19 -1 -8 3 -5 6 6 6 11 1 17 -2 13
-5z"/>
<path d="M538 2814 l-28 -15 0 -134 c0 -131 13 -521 29 -849 l7 -159 33 -29
c52 -46 73 -36 211 95 42 40 92 86 112 103 56 49 69 76 75 156 8 123 -12 368
-35 419 -21 47 -283 373 -328 408 -31 25 -40 25 -76 5z"/>
<path d="M1904 2462 c-168 -153 -211 -202 -220 -248 -4 -20 -4 -121 -2 -224 7
-220 11 -234 109 -351 54 -64 163 -197 236 -287 28 -34 77 -45 105 -22 l23 18
0 419 c0 453 -5 666 -16 728 -9 47 -39 75 -84 75 -27 0 -51 -17 -151 -108z"/>
<path d="M1200 2268 c-165 -110 -44 -408 165 -408 70 0 121 34 156 106 19 37
20 47 10 96 -15 73 -65 153 -119 192 -36 25 -55 31 -110 34 -57 3 -72 0 -102
-20z"/>
<path d="M1145 1735 c-5 -2 -22 -6 -38 -9 -27 -6 -106 -72 -254 -213 -62 -58
-73 -73 -73 -102 0 -43 55 -101 96 -101 48 0 173 -27 190 -41 21 -17 55 -89
48 -101 -15 -24 28 5 321 217 83 60 167 120 187 134 21 14 37 29 38 33 1 19
-67 80 -114 103 -57 28 -370 90 -401 80z"/>
<path d="M1758 1232 c-48 -36 -86 -68 -84 -69 8 -8 169 -43 195 -43 60 0 75
79 27 143 -16 20 -33 37 -40 36 -6 0 -50 -30 -98 -67z"/>
</g>
</svg>
